{
	"asset":{
		"generator":"Khronos glTF Blender I/O v4.3.47",
		"version":"2.0"
	},
	"extensionsUsed":[
		"KHR_materials_emissive_strength"
	],
	"scene":0,
	"scenes":[
		{
			"extras":{
				"blosm":{
					"defaultLevels":[
						{
							"levels":4,
							"weight":10
						},
						{
							"levels":5,
							"weight":40
						},
						{
							"levels":6,
							"weight":10
						}
					]
				},
				"skinify":{
					"connect_mesh":0,
					"connect_parents":0,
					"generate_all":0,
					"thickness":0.800000011920929,
					"finger_thickness":0.25,
					"apply_mod":1,
					"parent_armature":1,
					"sub_level":1
				},
				"air_props":{},
				"sun_pos_properties":{
					"show_surface":0,
					"show_analemmas":0,
					"show_north":0,
					"latitude":0.0,
					"day_of_year":306,
					"sun_object":{},
					"object_collection":{}
				},
				"photographer":{}
			},
			"name":"Scene",
			"nodes":[
				0,
				1,
				2,
				3
			]
		}
	],
	"nodes":[
		{
			"extras":{
				"ant_landscape":{}
			},
			"mesh":0,
			"name":"Football ball",
			"scale":[
				0.12000003457069397,
				0.12000003457069397,
				0.12000003457069397
			]
		},
		{
			"camera":0,
			"extras":{
				"ant_landscape":{}
			},
			"name":"Camera",
			"scale":[
				0.08841502666473389,
				0.08841502666473389,
				0.08841502666473389
			],
			"translation":[
				0,
				0.11296141147613525,
				0.45432186126708984
			]
		},
		{
			"extras":{
				"ant_landscape":{}
			},
			"mesh":1,
			"name":"light 360",
			"scale":[
				1.0687953233718872,
				0.26188239455223083,
				1.0687953233718872
			],
			"translation":[
				0,
				0.30639028549194336,
				0
			]
		},
		{
			"extras":{
				"ant_landscape":{}
			},
			"mesh":2,
			"name":"light up",
			"scale":[
				1.0687953233718872,
				0.2204103022813797,
				1.0687953233718872
			],
			"translation":[
				0,
				0.6535295248031616,
				0
			]
		}
	],
	"cameras":[
		{
			"extras":{
				"photographer":{
					"ev":9.416000366210938
				},
				"post_effects":{}
			},
			"name":"Camera.001",
			"perspective":{
				"aspectRatio":1,
				"yfov":0.691111147403717,
				"zfar":100,
				"znear":0.10000000149011612
			},
			"type":"perspective"
		}
	],
	"materials":[
		{
			"doubleSided":true,
			"name":"White",
			"pbrMetallicRoughness":{
				"baseColorFactor":[
					1,
					0.9107804894447327,
					0.9005587697029114,
					1
				],
				"metallicFactor":0
			}
		},
		{
			"doubleSided":true,
			"name":"Black",
			"pbrMetallicRoughness":{
				"baseColorFactor":[
					0,
					0,
					0,
					1
				],
				"metallicFactor":0
			}
		},
		{
			"doubleSided":true,
			"emissiveFactor":[
				1,
				1,
				1
			],
			"extensions":{
				"KHR_materials_emissive_strength":{
					"emissiveStrength":2.5
				}
			},
			"name":"light",
			"pbrMetallicRoughness":{
				"baseColorFactor":[
					0,
					0,
					0,
					1
				]
			}
		}
	],
	"meshes":[
		{
			"name":"Icosphere.001",
			"primitives":[
				{
					"attributes":{
						"POSITION":0,
						"NORMAL":1,
						"TEXCOORD_0":2,
						"TANGENT":3
					},
					"indices":4,
					"material":0
				},
				{
					"attributes":{
						"POSITION":5,
						"NORMAL":6,
						"TEXCOORD_0":7,
						"TANGENT":8
					},
					"indices":9,
					"material":1
				}
			]
		},
		{
			"name":"Cylinder",
			"primitives":[
				{
					"attributes":{
						"POSITION":10,
						"NORMAL":11,
						"TEXCOORD_0":12,
						"TANGENT":13
					},
					"indices":14,
					"material":2
				}
			]
		},
		{
			"name":"Cylinder.001",
			"primitives":[
				{
					"attributes":{
						"POSITION":15,
						"NORMAL":16,
						"TEXCOORD_0":17,
						"TANGENT":18
					},
					"indices":19,
					"material":2
				}
			]
		}
	],
	"accessors":[
		{
			"bufferView":0,
			"componentType":5126,
			"count":7334,
			"max":[
				0.9202686548233032,
				1.8198716640472412,
				0.9225443601608276
			],
			"min":[
				-0.9202686548233032,
				0.04012840986251831,
				-0.9225443601608276
			],
			"type":"VEC3"
		},
		{
			"bufferView":1,
			"componentType":5126,
			"count":7334,
			"type":"VEC3"
		},
		{
			"bufferView":2,
			"componentType":5126,
			"count":7334,
			"type":"VEC2"
		},
		{
			"bufferView":3,
			"componentType":5126,
			"count":7334,
			"type":"VEC4"
		},
		{
			"bufferView":4,
			"componentType":5123,
			"count":34548,
			"type":"SCALAR"
		},
		{
			"bufferView":5,
			"componentType":5126,
			"count":2821,
			"max":[
				0.9095468521118164,
				1.8552651405334473,
				0.8814796209335327
			],
			"min":[
				-0.9095468521118164,
				0.004734814167022705,
				-0.8814796209335327
			],
			"type":"VEC3"
		},
		{
			"bufferView":6,
			"componentType":5126,
			"count":2821,
			"type":"VEC3"
		},
		{
			"bufferView":7,
			"componentType":5126,
			"count":2821,
			"type":"VEC2"
		},
		{
			"bufferView":8,
			"componentType":5126,
			"count":2821,
			"type":"VEC4"
		},
		{
			"bufferView":9,
			"componentType":5123,
			"count":11532,
			"type":"SCALAR"
		},
		{
			"bufferView":10,
			"componentType":5126,
			"count":68,
			"max":[
				1.172262191772461,
				1.172258973121643,
				1.172262191772461
			],
			"min":[
				-1.172262191772461,
				-1.1722657680511475,
				-1.172262191772461
			],
			"type":"VEC3"
		},
		{
			"bufferView":11,
			"componentType":5126,
			"count":68,
			"type":"VEC3"
		},
		{
			"bufferView":12,
			"componentType":5126,
			"count":68,
			"type":"VEC2"
		},
		{
			"bufferView":13,
			"componentType":5126,
			"count":68,
			"type":"VEC4"
		},
		{
			"bufferView":14,
			"componentType":5123,
			"count":192,
			"type":"SCALAR"
		},
		{
			"bufferView":15,
			"componentType":5126,
			"count":96,
			"max":[
				0.5489766001701355,
				-0.9393923282623291,
				0.5489766001701355
			],
			"min":[
				-0.5489766001701355,
				-0.9393923282623291,
				-0.5489766001701355
			],
			"type":"VEC3"
		},
		{
			"bufferView":16,
			"componentType":5126,
			"count":96,
			"type":"VEC3"
		},
		{
			"bufferView":17,
			"componentType":5126,
			"count":96,
			"type":"VEC2"
		},
		{
			"bufferView":18,
			"componentType":5126,
			"count":96,
			"type":"VEC4"
		},
		{
			"bufferView":19,
			"componentType":5123,
			"count":96,
			"type":"SCALAR"
		}
	],
	"bufferViews":[
		{
			"buffer":0,
			"byteLength":88008,
			"byteOffset":0,
			"target":34962
		},
		{
			"buffer":0,
			"byteLength":88008,
			"byteOffset":88008,
			"target":34962
		},
		{
			"buffer":0,
			"byteLength":58672,
			"byteOffset":176016,
			"target":34962
		},
		{
			"buffer":0,
			"byteLength":117344,
			"byteOffset":234688,
			"target":34962
		},
		{
			"buffer":0,
			"byteLength":69096,
			"byteOffset":352032,
			"target":34963
		},
		{
			"buffer":0,
			"byteLength":33852,
			"byteOffset":421128,
			"target":34962
		},
		{
			"buffer":0,
			"byteLength":33852,
			"byteOffset":454980,
			"target":34962
		},
		{
			"buffer":0,
			"byteLength":22568,
			"byteOffset":488832,
			"target":34962
		},
		{
			"buffer":0,
			"byteLength":45136,
			"byteOffset":511400,
			"target":34962
		},
		{
			"buffer":0,
			"byteLength":23064,
			"byteOffset":556536,
			"target":34963
		},
		{
			"buffer":0,
			"byteLength":816,
			"byteOffset":579600,
			"target":34962
		},
		{
			"buffer":0,
			"byteLength":816,
			"byteOffset":580416,
			"target":34962
		},
		{
			"buffer":0,
			"byteLength":544,
			"byteOffset":581232,
			"target":34962
		},
		{
			"buffer":0,
			"byteLength":1088,
			"byteOffset":581776,
			"target":34962
		},
		{
			"buffer":0,
			"byteLength":384,
			"byteOffset":582864,
			"target":34963
		},
		{
			"buffer":0,
			"byteLength":1152,
			"byteOffset":583248,
			"target":34962
		},
		{
			"buffer":0,
			"byteLength":1152,
			"byteOffset":584400,
			"target":34962
		},
		{
			"buffer":0,
			"byteLength":768,
			"byteOffset":585552,
			"target":34962
		},
		{
			"buffer":0,
			"byteLength":1536,
			"byteOffset":586320,
			"target":34962
		},
		{
			"buffer":0,
			"byteLength":192,
			"byteOffset":587856,
			"target":34963
		}
	],
	"buffers":[
		{
			"byteLength":588048,
			"uri":"Football_ball-eb8742af2e603f7e0e4ff40ff5263d88.bin"
		}
	]
}
